<?xml version="1.0" encoding="UTF-8"?>
<svg width="1500px" height="490px" viewBox="0 0 150 49" version="1.1" xmlns="http://www.w3.org/2000/svg" xmlns:xlink="http://www.w3.org/1999/xlink">
    <title>Group</title>
    <defs>
        <polygon id="path-1" points="0 49 137 49 137 0 0 0"></polygon>
        <path d="M5.16207235,0 C2.30957494,0 0,2.34495335 0,5.23691129 L0,5.23691129 L0,43.7635423 C0,46.6559538 2.30957494,49 5.16207235,49 L5.16207235,49 L43.8379277,49 C46.6895179,49 49,46.6559538 49,43.7635423 L49,43.7635423 L49,5.23691129 C49,2.34495335 46.6895179,0 43.8379277,0 L43.8379277,0 L5.16207235,0 Z" id="path-3"></path>
        <linearGradient x1="50.0003096%" y1="4.75223665%" x2="50.0003096%" y2="106.177689%" id="linearGradient-5">
            <stop stop-color="#0B53A1" offset="0%"></stop>
            <stop stop-color="#22305D" offset="100%"></stop>
        </linearGradient>
    </defs>
    <g id="Symbols" stroke="none" stroke-width="1" fill="none" fill-rule="evenodd">
        <g id="UI-Component/Menu/Superior-dark-mode" transform="translate(-92.000000, -12.000000)">
            <g id="Group" transform="translate(92.000000, 12.000000)">
                <rect id="Rectangle" x="0" y="0" width="150" height="49"></rect>
                <g id="Group-48">
                    <polygon id="Fill-1" fill="#FFFFFF" points="56 10 59.5284144 10 62.5453697 24.9585924 62.5962356 24.9585924 62.5962356 10 65 10 65 28 61.3180545 28 58.3010992 12.6423479 58.2502333 12.6423479 58.2502333 28 56 28"></polygon>
                    <polygon id="Fill-2" fill="#FFFFFF" points="66 10 73 10 73 12.0935841 68.5739784 12.0935841 68.5739784 17.7291066 72.7430719 17.7291066 72.7430719 19.8226907 68.5739784 19.8226907 68.5739784 25.9055058 73 25.9055058 73 28 66 28"></polygon>
                    <polygon id="Fill-3" fill="#FFFFFF" points="74 10 82 10 82 12.0935841 79.1762938 12.0935841 79.1762938 28 76.8237062 28 76.8237062 12.0935841 74 12.0935841"></polygon>
                    <polygon id="Fill-4" fill="#FFFFFF" points="83 10 85.5707696 10 87.3688961 24.8088882 87.418553 24.8088882 89.4153071 10 92.8097435 10 94.457077 24.8088882 94.5067339 24.8088882 96.6538253 10 99 10 95.7554455 28 92.7095185 28 91.0371288 12.9422114 90.9874719 12.9422114 88.8658922 28 85.8454771 28"></polygon>
                    <g id="Group-39">
                        <path d="M101.806931,23.9640221 C101.806931,25.5038757 102.5038,26.324375 103.525238,26.324375 C104.571224,26.324375 105.269002,25.5038757 105.269002,23.9640221 L105.269002,14.5452889 C105.269002,12.7804671 104.671231,11.9608749 103.525238,11.9608749 C102.404702,11.9608749 101.806931,12.7804671 101.806931,14.5452889 L101.806931,23.9640221 Z M99.3158402,14.7439505 C99.3158402,12.2343747 100.138173,10.0223376 103.525238,10.0223376 C106.738655,10.0223376 107.759184,11.6873752 107.759184,14.4709043 L107.759184,23.5412994 C107.759184,26.0508752 106.936851,28.2633658 103.525238,28.2633658 C100.337278,28.2633658 99.3158402,26.5978747 99.3158402,23.8147992 L99.3158402,14.7439505 Z" id="Fill-5" fill="#FFFFFF"></path>
                        <path d="M112.018404,18.2228402 L112.665724,18.2228402 C114.63314,18.2228402 114.907251,17.8504633 114.907251,15.1662649 C114.907251,12.5070127 114.75724,12.258459 113.213946,12.258459 L112.018404,12.258459 L112.018404,18.2228402 Z M109.527313,10.1716059 L113.388049,10.1716059 C117.024224,10.1716059 117.398342,11.140421 117.398342,15.0669342 C117.398342,17.4780863 117.073773,18.5217397 115.031351,19.1422167 L115.031351,19.1925625 C116.725566,19.3662779 117.298335,20.2362158 117.298335,21.9257458 L117.298335,25.8277665 C117.298335,26.4736432 117.298335,27.3680736 117.447891,28.1137347 L115.106356,28.1137347 C114.857702,27.6665195 114.808153,27.2188507 114.808153,26.4981358 L114.808153,22.4473457 C114.808153,20.7578157 114.508586,20.3106005 112.864829,20.3106005 L112.018404,20.3106005 L112.018404,28.1137347 L109.527313,28.1137347 L109.527313,10.1716059 Z" id="Fill-7" fill="#FFFFFF"></path>
                        <polygon id="Fill-9" fill="#FFFFFF" points="119.215838 10.1715605 121.706929 10.1715605 121.706929 18.3470717 121.756478 18.3470717 125.69222 10.1715605 128.182402 10.1715605 123.998005 18.596079 128.481515 28.1136893 125.69222 28.1136893 121.756478 19.1421714 121.706929 19.1421714 121.706929 28.1136893 119.215838 28.1136893"></polygon>
                        <path d="M129.079331,22.9195524 L131.570422,22.9195524 L131.570422,24.3859284 C131.570422,25.5788046 132.018636,26.3244657 133.014618,26.3244657 C134.334715,26.3244657 134.658375,25.4304888 134.658375,24.2616515 C134.658375,22.7458369 134.583369,22.2491831 131.99318,19.6892616 C130.399427,18.0986088 129.079331,16.6576324 129.079331,14.2224413 C129.079331,11.2896893 130.449886,10.0219748 133.164629,10.0219748 C134.508818,10.0219748 135.480707,10.46919 136.078478,11.0161895 C136.501236,11.4139661 136.800804,12.0353503 136.800804,13.3021577 L136.800804,14.9925949 L134.459269,14.9925949 L134.459269,13.5756574 C134.459269,12.5574038 134.036511,11.9609656 133.064167,11.9609656 C132.043638,11.9609656 131.570422,12.5320041 131.570422,13.9235419 C131.570422,15.1418178 131.819076,15.8874788 134.110153,18.2732313 C136.551695,20.8072996 136.999909,21.6772375 136.999909,23.839836 C136.999909,26.647404 135.904375,28.263003 132.940067,28.263003 C130.648991,28.263003 129.079331,27.2932808 129.079331,25.0567512 L129.079331,22.9195524 Z" id="Fill-11" fill="#FFFFFF"></path>
                        <path d="M58.4828143,34.3698944 C58.5023612,33.5666306 58.1046048,33.3530014 57.8032192,33.3530014 C57.1922655,33.3530014 56.7749623,33.6432831 56.7749623,34.980393 C56.7749623,36.5687781 56.9786136,37.1398165 57.8032192,37.1398165 C57.9882327,37.1398165 58.5419095,36.9470514 58.5128165,36.0648672 L59.3469683,36.0648672 C59.3760613,37.4405302 58.3478044,37.7888682 57.8032192,37.7888682 C56.7654162,37.7888682 55.9394468,37.4786297 55.9394468,35.3192062 C55.9394468,33.8859404 56.1044589,32.7039497 57.8032192,32.7039497 C58.7841999,32.7039497 59.3565144,33.2754418 59.3087837,34.3698944 L58.4828143,34.3698944 Z" id="Fill-13" fill="#FFFFFF"></path>
                        <path d="M63.5337739,34.9804384 C63.5337739,33.6433284 63.1169253,33.3530468 62.5050624,33.3530468 C61.8931996,33.3530468 61.4768055,33.6433284 61.4768055,34.9804384 C61.4768055,36.5683698 61.6804568,37.1398619 62.5050624,37.1398619 C63.3301226,37.1398619 63.5337739,36.5683698 63.5337739,34.9804384 M60.64129,35.3192515 C60.64129,33.8859858 60.8063021,32.7039951 62.5050624,32.7039951 C64.2038228,32.7039951 64.3688348,33.8859858 64.3688348,35.3192515 C64.3688348,37.478675 63.5442292,37.7889136 62.5050624,37.7889136 C61.4663502,37.7889136 60.64129,37.478675 60.64129,35.3192515" id="Fill-15" fill="#FFFFFF"></path>
                        <path d="M68.292894,37.6922588 L68.292894,34.3023132 C68.292894,33.778899 68.1078805,33.3530014 67.42874,33.3530014 C66.5545853,33.3530014 66.4291216,34.127237 66.4291216,34.795792 L66.4291216,37.6922588 L65.6331544,37.6922588 L65.6331544,33.8183592 C65.6331544,33.4786389 65.6136075,33.1393722 65.5845145,32.8005591 L66.4291216,32.8005591 L66.4291216,33.430561 L66.4673062,33.430561 C66.778238,32.8781187 67.1469012,32.7039497 67.7787655,32.7039497 C68.8270239,32.7039497 69.0888612,33.3334981 69.0888612,34.3023132 L69.0888612,37.6922588 L68.292894,37.6922588 Z" id="Fill-17" fill="#FFFFFF"></path>
                        <path d="M73.1495667,37.6922588 L73.1495667,34.3023132 C73.1495667,33.778899 72.9645532,33.3530014 72.2854127,33.3530014 C71.411258,33.3530014 71.2857943,34.127237 71.2857943,34.795792 L71.2857943,37.6922588 L70.4898271,37.6922588 L70.4898271,33.8183592 C70.4898271,33.4786389 70.4702802,33.1393722 70.4411871,32.8005591 L71.2857943,32.8005591 L71.2857943,33.430561 L71.3239789,33.430561 C71.6349106,32.8781187 72.0035739,32.7039497 72.6354382,32.7039497 C73.6836966,32.7039497 73.9455338,33.3334981 73.9455338,34.3023132 L73.9455338,37.6922588 L73.1495667,37.6922588 Z" id="Fill-19" fill="#FFFFFF"></path>
                        <path d="M78.0353324,34.9027427 C78.0353324,33.4785482 77.6375761,33.3043792 77.0548063,33.3043792 C76.5497694,33.3043792 76.1329208,33.5470366 76.1224655,34.9027427 L78.0353324,34.9027427 Z M76.1224655,35.5028093 C76.1224655,36.869401 76.4915833,37.1397258 77.1129923,37.1397258 C77.6571229,37.1397258 77.9385071,36.7043033 77.9676002,36.2099173 L78.8403911,36.2099173 C78.8312996,37.2952987 78.1612507,37.7887775 77.1325392,37.7887775 C76.0933724,37.7887775 75.2687668,37.4789925 75.2687668,35.319569 C75.2687668,33.8858497 75.4337788,32.703859 77.1325392,32.703859 C78.5308231,32.703859 78.8799395,33.4690234 78.8799395,35.0873437 L78.8799395,35.5028093 L76.1224655,35.5028093 Z" id="Fill-21" fill="#FFFFFF"></path>
                        <path d="M82.7653594,34.3698944 C82.7839972,33.5666306 82.3862409,33.3530014 82.0848552,33.3530014 C81.4739015,33.3530014 81.0561438,33.6432831 81.0561438,34.980393 C81.0561438,36.5687781 81.259795,37.1398165 82.0848552,37.1398165 C82.2698687,37.1398165 82.8235455,36.9470514 82.7944525,36.0648672 L83.6286043,36.0648672 C83.6576973,37.4405302 82.6294404,37.7888682 82.0848552,37.7888682 C81.0470522,37.7888682 80.2210828,37.4786297 80.2210828,35.3192062 C80.2210828,33.8859404 80.3860949,32.7039497 82.0848552,32.7039497 C83.0658359,32.7039497 83.6381504,33.2754418 83.5904197,34.3698944 L82.7653594,34.3698944 Z" id="Fill-23" fill="#FFFFFF"></path>
                        <path d="M85.146306,32.8005137 L85.146306,31.8611804 L85.9422732,31.5028639 L85.9422732,32.8005137 L87.0100784,32.8005137 L87.0100784,33.4014875 L85.9422732,33.4014875 L85.9422732,36.3945637 C85.9422732,36.7043487 85.9422732,37.1012181 86.6705081,37.1012181 C86.7286942,37.1012181 86.8541579,37.0817148 87.0300798,37.0631187 L87.0300798,37.6727102 C86.7668788,37.6922135 86.5050415,37.7502698 86.2432042,37.7502698 C85.4858762,37.7502698 85.146306,37.4404849 85.146306,36.8785177 L85.146306,33.4014875 L84.340338,33.4014875 L84.340338,32.8005137 L85.146306,32.8005137 Z" id="Fill-25" fill="#FFFFFF"></path>
                        <mask id="mask-2" fill="white">
                            <use xlink:href="#path-1"></use>
                        </mask>
                        <g id="Clip-28"></g>
                        <path d="M87.7391316,37.6921681 L88.5350988,37.6921681 L88.5350988,32.8004684 L87.7391316,32.8004684 L87.7391316,37.6921681 Z M87.6904917,31.5513501 L88.5837387,31.5513501 L88.5837387,30.6991012 L87.6904917,30.6991012 L87.6904917,31.5513501 Z" id="Fill-27" fill="#FFFFFF" mask="url(#mask-2)"></path>
                        <path d="M92.5744845,37.6922588 L92.5744845,34.3023132 C92.5744845,33.778899 92.389471,33.3530014 91.7103305,33.3530014 C90.8361758,33.3530014 90.7107121,34.127237 90.7107121,34.795792 L90.7107121,37.6922588 L89.9147449,37.6922588 L89.9147449,33.8183592 C89.9147449,33.4786389 89.8951981,33.1393722 89.866105,32.8005591 L90.7107121,32.8005591 L90.7107121,33.430561 L90.7488967,33.430561 C91.0598285,32.8781187 91.4284918,32.7039497 92.0603561,32.7039497 C93.1086144,32.7039497 93.3704517,33.3334981 93.3704517,34.3023132 L93.3704517,37.6922588 L92.5744845,37.6922588 Z" id="Fill-29" fill="#FFFFFF" mask="url(#mask-2)"></path>
                        <path d="M96.4316752,33.3623448 C95.528882,33.3623448 95.499789,34.4477262 95.499789,35.0967778 C95.499789,36.6661131 95.8584515,37.0339544 96.4503129,37.0339544 C97.4112921,37.0339544 97.3821991,35.9000417 97.3821991,35.2219618 C97.3821991,34.4962576 97.4312936,33.3623448 96.4316752,33.3623448 L96.4316752,33.3623448 Z M97.3635614,32.8003777 L98.1595286,32.8003777 L98.1595286,38.1864634 C98.1595286,39.2804625 97.4312936,39.5426231 96.3539422,39.5426231 C95.5384282,39.5426231 94.800647,39.1353216 94.8679247,38.2345413 L95.7616263,38.2345413 C95.7711724,38.6894671 96.0721035,38.9411957 96.508499,38.9411957 C97.0621757,38.9411957 97.3635614,38.6023826 97.3635614,38.0984718 L97.3635614,37.0815788 L97.3344683,37.0815788 C97.129908,37.4693769 96.6830572,37.6920774 96.2562078,37.6920774 C94.9261107,37.6920774 94.6642734,36.5490933 94.6642734,35.0967778 C94.6642734,32.8493627 95.8002654,32.7042219 96.1980218,32.7042219 C96.7130593,32.7042219 97.1203618,32.9269223 97.3440145,33.401805 L97.3635614,33.401805 L97.3635614,32.8003777 Z" id="Fill-30" fill="#FFFFFF" mask="url(#mask-2)"></path>
                        <path d="M101.871163,32.8005137 L101.871163,31.8611804 L102.66713,31.5028639 L102.66713,32.8005137 L103.734936,32.8005137 L103.734936,33.4014875 L102.66713,33.4014875 L102.66713,36.3945637 C102.66713,36.7043487 102.66713,37.1012181 103.395365,37.1012181 C103.453551,37.1012181 103.579015,37.0817148 103.754937,37.0631187 L103.754937,37.6727102 C103.491736,37.6922135 103.229899,37.7502698 102.968061,37.7502698 C102.210733,37.7502698 101.871163,37.4404849 101.871163,36.8785177 L101.871163,33.4014875 L101.065195,33.4014875 L101.065195,32.8005137 L101.871163,32.8005137 Z" id="Fill-31" fill="#FFFFFF" mask="url(#mask-2)"></path>
                        <path d="M107.143593,37.6922588 L107.143593,34.3794193 C107.143593,33.778899 106.949488,33.3530014 106.269893,33.3530014 C105.473926,33.3530014 105.270275,33.9925282 105.270275,34.8157489 L105.270275,37.6922588 L104.473399,37.6922588 L104.473399,30.6991919 L105.270275,30.6991919 L105.270275,33.430561 L105.308914,33.430561 C105.628937,32.8586154 105.997601,32.7039497 106.638557,32.7039497 C107.474072,32.7039497 107.939561,33.1207761 107.939561,34.2247535 L107.939561,37.6922588 L107.143593,37.6922588 Z" id="Fill-32" fill="#FFFFFF" mask="url(#mask-2)"></path>
                        <path d="M112.029405,34.9027427 C112.029405,33.4785482 111.631648,33.3043792 111.048878,33.3043792 C110.543842,33.3043792 110.126993,33.5470366 110.116538,34.9027427 L112.029405,34.9027427 Z M110.116538,35.5028093 C110.116538,36.869401 110.485656,37.1397258 111.107065,37.1397258 C111.651195,37.1397258 111.932579,36.7043033 111.961672,36.2099173 L112.834463,36.2099173 C112.825372,37.2952987 112.155323,37.7887775 111.126611,37.7887775 C110.087445,37.7887775 109.262839,37.4789925 109.262839,35.319569 C109.262839,33.8858497 109.427851,32.703859 111.126611,32.703859 C112.524895,32.703859 112.874012,33.4690234 112.874012,35.0873437 L112.874012,35.5028093 L110.116538,35.5028093 Z" id="Fill-33" fill="#FFFFFF" mask="url(#mask-2)"></path>
                        <polygon id="Fill-34" fill="#FFFFFF" mask="url(#mask-2)" points="115.74113 32.8005137 116.624376 32.8005137 117.508532 37.0141336 117.52717 37.0141336 118.614976 32.8005137 119.740967 32.8005137 120.740586 37.0141336 120.760133 37.0141336 121.730658 32.8005137 122.575265 32.8005137 121.26517 37.6922135 120.19691 37.6922135 119.148652 33.527125 119.129105 33.527125 118.032206 37.6922135 116.963947 37.6922135"></polygon>
                        <path d="M126.121797,34.9804384 C126.121797,33.6433284 125.704948,33.3530468 125.093085,33.3530468 C124.481223,33.3530468 124.064829,33.6433284 124.064829,34.9804384 C124.064829,36.5683698 124.26848,37.1398619 125.093085,37.1398619 C125.918146,37.1398619 126.121797,36.5683698 126.121797,34.9804384 M123.229313,35.3192515 C123.229313,33.8859858 123.394325,32.7039951 125.093085,32.7039951 C126.791846,32.7039951 126.956858,33.8859858 126.956858,35.3192515 C126.956858,37.478675 126.132252,37.7889136 125.093085,37.7889136 C124.054373,37.7889136 123.229313,37.478675 123.229313,35.3192515" id="Fill-35" fill="#FFFFFF" mask="url(#mask-2)"></path>
                        <path d="M129.046147,33.5374663 L129.065694,33.5374663 C129.395263,32.7913517 129.803475,32.7042672 130.57944,32.7042672 L130.57944,33.5270343 C130.512163,33.517963 130.433975,33.507531 130.366698,33.4980062 C130.298056,33.4889349 130.230324,33.4785029 130.152591,33.4785029 C129.269345,33.4785029 129.046147,34.1470578 129.046147,34.806088 L129.046147,37.6921228 L128.25018,37.6921228 L128.25018,32.800423 L129.046147,32.800423 L129.046147,33.5374663 Z" id="Fill-36" fill="#FFFFFF" mask="url(#mask-2)"></path>
                        <polygon id="Fill-37" fill="#FFFFFF" mask="url(#mask-2)" points="131.435503 37.6921681 132.23147 37.6921681 132.23147 30.6991012 131.435503 30.6991012"></polygon>
                        <path d="M135.281465,33.3530014 C134.427312,33.3530014 134.31094,34.0310812 134.31094,35.3382559 C134.31094,36.0752992 134.31094,37.1398165 135.310559,37.1398165 C136.203806,37.1398165 136.203806,36.035839 136.203806,35.0479742 C136.203806,34.3989226 136.164712,33.3530014 135.281465,33.3530014 L135.281465,33.3530014 Z M136.203806,30.6991919 L136.999773,30.6991919 L136.999773,37.6922588 L136.203806,37.6922588 L136.203806,37.1107884 L136.184259,37.1107884 C135.911966,37.5666213 135.572396,37.7888682 135.058267,37.7888682 C134.271846,37.7888682 133.475879,37.4786297 133.475879,35.328731 C133.475879,34.1086409 133.514064,32.7039497 135.096452,32.7039497 C135.56285,32.7039497 135.902874,32.9071469 136.174712,33.2949451 L136.203806,33.2949451 L136.203806,30.6991919 Z" id="Fill-38" fill="#FFFFFF" mask="url(#mask-2)"></path>
                    </g>
                    <g id="Group-42">
                        <mask id="mask-4" fill="white">
                            <use xlink:href="#path-3"></use>
                        </mask>
                        <g id="Clip-41"></g>
                        <path d="M5.16207235,0 C2.30957494,0 0,2.34495335 0,5.23691129 L0,5.23691129 L0,43.7635423 C0,46.6559538 2.30957494,49 5.16207235,49 L5.16207235,49 L43.8379277,49 C46.6895179,49 49,46.6559538 49,43.7635423 L49,43.7635423 L49,5.23691129 C49,2.34495335 46.6895179,0 43.8379277,0 L43.8379277,0 L5.16207235,0 Z" id="Fill-40" fill="url(#linearGradient-5)" mask="url(#mask-4)"></path>
                    </g>
                    <g id="Group-47" transform="translate(7.000000, 10.000000)" fill="#BED01C">
                        <path d="M12.8664099,26.2442647 C10.515898,26.2442647 8.6044482,24.2947051 8.6044482,21.8973296 C8.6044482,19.5013306 10.515898,17.5517711 12.8664099,17.5517711 C15.2160222,17.5517711 17.1270221,19.5013306 17.1270221,21.8973296 C17.1270221,24.2947051 15.2160222,26.2442647 12.8664099,26.2442647 M12.8664099,13.81003 C11.3143973,13.81003 9.83301243,14.2633519 8.5630612,15.1085128 L8.5630612,1.89564725 C8.5630612,0.865578735 7.73936984,0.0259237734 6.72853724,0.0259237734 C5.71770464,0.0259237734 4.89446314,0.865578735 4.89446314,1.89564725 L4.89446314,23.0792702 C4.89446314,24.8012511 3.52149425,26.2015937 1.83317438,26.2015937 C0.822341785,26.2015937 0,27.0417075 0,28.0736113 C0,29.1045975 0.822341785,29.9433348 1.83317438,29.9433348 C3.87733252,29.9433348 5.79283105,28.9898905 7.05963328,27.3963814 C8.55046515,29.0343968 10.6499559,29.9855469 12.8664099,29.9855469 C17.2385871,29.9855469 20.7947205,26.3575951 20.7947205,21.8973296 C20.7947205,17.4388994 17.2385871,13.81003 12.8664099,13.81003" id="Fill-43"></path>
                        <path d="M33.1668256,26.2628472 L30.9755637,26.2628472 L30.9755637,6.87002936 C30.9755637,3.08194665 27.9543123,0 24.2402786,0 C23.229446,0 22.4053047,0.839654961 22.4053047,1.8733941 C22.4053047,2.90438028 23.229446,3.74357641 24.2402786,3.74357641 C25.9308477,3.74357641 27.3060659,5.14621314 27.3060659,6.87002936 L27.3060659,26.2628472 L25.162489,26.2628472 C24.153006,26.2628472 23.3306642,27.1006668 23.3306642,28.131653 C23.3306642,29.1621803 24.153006,30 25.162489,30 L33.1668256,30 C34.1776582,30 35,29.1621803 35,28.131653 C35,27.1006668 34.1776582,26.2628472 33.1668256,26.2628472" id="Fill-45"></path>
                    </g>
                </g>
            </g>
        </g>
    </g>
</svg>